# xmcd
#
# Track frame offsets:
#	150
#	24143
#	41539
#	57942
#	73359
#	86780
#	111519
#	131666
#	144591
#	158341
#	183927
#
# Disc length: 2614 seconds
#
# Revision: 1
# Processed by: cddbd v1.5.1PL0 Copyright (c) Steve Scherf et al.
# Submitted via: EasyCDDAExtractor 6.5.0.3
#
DISCID=950a340b
DTITLE=Eric Clapton - Sessions For Robert J
DYEAR=2004
DGENRE=Blues
TTITLE0=Sweet Home Chicago
TTITLE1=Milkcow's Calf Blues
TTITLE2=Terraplane Blues
TTITLE3=If I Had a Possession Over Judgement Day
TTITLE4=Stop Breakin' Down Blues
TTITLE5=Little Queen of Spades
TTITLE6=Traveling Riverside Blues
TTITLE7=Me and the Devil Blues
TTITLE8=From Four Until Late
TTITLE9=Kind Hearted Woman Blues
TTITLE10=Ramblin' on My Mind
EXTD=
EXTT0=
EXTT1=
EXTT2=
EXTT3=
EXTT4=
EXTT5=
EXTT6=
EXTT7=
EXTT8=
EXTT9=
EXTT10=
PLAYORDER=
